<svg width="1288" height="429" viewBox="0 0 1288 429" fill="none" xmlns="http://www.w3.org/2000/svg">
  <path
    d="M99.2627 106.104L0.328339 389.047C0.328339 389.047 53.3801 404.341 92.0936 364.194C130.807 324.047 140.844 228.458 140.844 228.458C159.145 271.497 191.506 300.15 228.308 300.628C264.983 301.104 281.488 267.242 296.971 235.478L297.131 235.149C250.541 256.59 213.703 231.161 166.653 106.104H99.2627Z"
    fill="#163C2B" />
  <path
    d="M358.786 106.583L457.72 389.526C457.72 389.526 404.669 404.82 365.955 364.673C327.242 324.526 317.205 228.937 317.205 228.937C298.903 271.976 266.543 300.629 229.741 301.107C192.939 301.585 162.586 273.222 147.057 241.364C193.647 262.804 244.346 231.64 291.396 106.583H358.786Z"
    fill="#7DBB6A" />
  <circle cx="317.683" cy="42.0595" r="42.0591" fill="#7DBB6A" />
  <circle cx="139.888" cy="42.0595" r="42.0591" fill="#163C2B" />
  <path
    d="M452.39 184.604C493.427 184.604 518.907 216.848 515.75 257.66H420.597C422.627 277.502 436.156 287.423 452.841 287.423C465.242 287.423 476.065 281.786 480.35 271.865H513.72C504.476 301.177 479.673 314.029 453.067 314.029C414.284 314.029 387.677 286.521 387.677 249.542C387.677 212.338 414.51 184.604 452.39 184.604ZM452.165 211.211C436.381 211.211 426.234 220.681 422.176 233.984H481.477C477.869 220.456 467.723 211.211 452.165 211.211ZM597.225 184.604C625.185 184.604 642.096 203.094 642.096 233.533V311.324H609.852V240.523C609.852 224.289 603.764 215.269 586.628 215.269C568.364 215.269 558.668 225.867 558.668 246.16V311.324H526.425V187.31H558.668V204.221C567.688 191.594 580.089 184.604 597.225 184.604ZM746.755 277.953L752.167 304.108C745.402 308.618 730.07 314.029 715.188 314.029C690.385 314.029 668.739 299.148 668.739 263.522V217.75H646.642V187.31H668.739V160.478L700.983 153.488V187.31H746.981V217.75H700.983V261.718C700.983 276.374 707.973 284.041 720.825 284.041C728.04 284.041 736.609 281.56 746.755 277.953ZM817.115 184.604C852.967 184.604 881.828 211.887 881.828 249.317C881.828 286.746 853.418 314.029 817.115 314.029C781.039 314.029 752.628 286.521 752.628 249.317C752.628 211.887 781.49 184.604 817.115 184.604ZM817.115 215.269C799.077 215.269 785.097 229.024 785.097 249.317C785.097 269.836 799.077 283.364 817.115 283.364C835.154 283.364 849.133 269.836 849.133 249.317C849.133 229.024 835.154 215.269 817.115 215.269ZM964.163 184.604C967.094 184.604 969.349 184.83 971.379 185.055V218.201C968.898 217.975 967.094 217.75 963.487 217.75C942.968 217.75 925.381 226.769 925.381 256.081V311.324H893.137V187.31H925.381V208.956C933.047 192.722 946.576 184.604 964.163 184.604ZM1080.61 311.324L1067.3 274.12H1003.49L989.963 311.324H955.916L1014.99 153.488H1055.8L1114.88 311.324H1080.61ZM1014.54 243.454H1056.03L1035.28 186.183L1014.54 243.454ZM1206.58 187.31H1238.82V309.745C1238.82 346.499 1214.92 370.399 1177.49 370.399C1147.5 370.399 1119.32 355.292 1114.58 322.823H1147.95C1151.56 336.803 1163.28 341.763 1176.59 341.763C1196.2 341.763 1206.58 331.617 1206.58 310.647V292.834C1197.78 304.559 1184.93 312.226 1167.57 312.226C1135.1 312.226 1110.97 285.619 1110.97 248.415C1110.97 210.985 1135.55 184.604 1167.57 184.604C1184.71 184.604 1198.01 192.496 1206.58 204.446V187.31ZM1174.78 281.56C1192.82 281.56 1206.58 268.032 1206.58 248.415C1206.58 229.024 1192.82 215.269 1174.78 215.269C1156.75 215.269 1143.44 229.024 1143.44 248.415C1143.44 267.806 1156.97 281.56 1174.78 281.56Z"
    fill="#163C2B" />
</svg>