<svg width="1470" height="489" viewBox="0 0 1470 489" fill="none" xmlns="http://www.w3.org/2000/svg">
  <path
    d="M113.282 121.074L0.386047 443.947C0.386047 443.947 60.9247 461.399 105.101 415.586C149.278 369.773 160.732 260.695 160.732 260.695C181.616 309.808 218.543 342.504 260.538 343.049C302.389 343.593 321.224 304.952 338.892 268.705L339.075 268.33C285.91 292.797 243.872 263.779 190.183 121.074H113.282Z"
    fill="#D9D9D9" />
  <path
    d="M409.43 121.619L522.326 444.491C522.326 444.491 461.788 461.944 417.611 416.131C373.434 370.318 361.981 261.239 361.981 261.239C341.097 310.352 304.169 343.048 262.174 343.594C220.179 344.139 185.542 311.774 167.821 275.419C220.986 299.886 278.84 264.323 332.53 121.619H409.43Z"
    fill="#F5F5F5" />
  <circle cx="362.525" cy="47.9946" r="47.9946" fill="#F5F5F5" />
  <circle cx="159.641" cy="47.9946" r="47.9946" fill="#D9D9D9" />
  <path
    d="M516.244 210.847C563.072 210.847 592.147 247.641 588.545 294.212H479.964C482.28 316.854 497.718 328.175 516.758 328.175C530.91 328.175 543.26 321.743 548.149 310.422H586.229C575.68 343.871 547.377 358.537 517.015 358.537C472.76 358.537 442.398 327.146 442.398 284.949C442.398 242.495 473.017 210.847 516.244 210.847ZM515.986 241.208C497.975 241.208 486.397 252.015 481.765 267.195H549.435C545.318 251.757 533.74 241.208 515.986 241.208ZM681.518 210.847C713.424 210.847 732.721 231.945 732.721 266.681V355.449H695.927V274.657C695.927 256.131 688.98 245.839 669.425 245.839C648.584 245.839 637.52 257.933 637.52 281.09V355.449H600.726V213.934H637.52V233.232C647.812 218.823 661.964 210.847 681.518 210.847ZM852.151 317.369L858.326 347.216C850.607 352.362 833.11 358.537 816.129 358.537C787.826 358.537 763.125 341.555 763.125 300.902V248.67H737.909V213.934H763.125V183.316L799.919 175.339V213.934H852.408V248.67H799.919V298.843C799.919 315.568 807.895 324.316 822.561 324.316C830.795 324.316 840.572 321.486 852.151 317.369ZM932.44 210.847C973.351 210.847 1006.29 241.98 1006.29 284.692C1006.29 327.404 973.865 358.537 932.44 358.537C891.272 358.537 858.852 327.146 858.852 284.692C858.852 241.98 891.787 210.847 932.44 210.847ZM932.44 245.839C911.856 245.839 895.904 261.535 895.904 284.692C895.904 308.106 911.856 323.544 932.44 323.544C953.024 323.544 968.977 308.106 968.977 284.692C968.977 261.535 953.024 245.839 932.44 245.839ZM1100.24 210.847C1103.58 210.847 1106.16 211.104 1108.47 211.361V249.184C1105.64 248.927 1103.58 248.67 1099.47 248.67C1076.05 248.67 1055.98 258.962 1055.98 292.411V355.449H1019.19V213.934H1055.98V238.635C1064.73 220.109 1080.17 210.847 1100.24 210.847ZM1233.12 355.449L1217.93 312.995H1145.12L1129.68 355.449H1090.83L1158.24 175.339H1204.81L1272.22 355.449H1233.12ZM1157.73 278.002H1205.07L1181.4 212.648L1157.73 278.002ZM1376.86 213.934H1413.66V353.648C1413.66 395.588 1386.38 422.862 1343.67 422.862C1309.45 422.862 1277.29 405.623 1271.89 368.572H1309.97C1314.08 384.524 1327.46 390.185 1342.64 390.185C1365.03 390.185 1376.86 378.606 1376.86 354.677V334.351C1366.83 347.73 1352.16 356.478 1332.35 356.478C1295.3 356.478 1267.77 326.117 1267.77 283.663C1267.77 240.951 1295.81 210.847 1332.35 210.847C1351.91 210.847 1367.09 219.852 1376.86 233.489V213.934ZM1340.58 321.486C1361.17 321.486 1376.86 306.048 1376.86 283.663C1376.86 261.535 1361.17 245.839 1340.58 245.839C1320 245.839 1304.82 261.535 1304.82 283.663C1304.82 305.79 1320.26 321.486 1340.58 321.486Z"
    fill="#D9D9D9" />
</svg>